<svg xmlns="http://www.w3.org/2000/svg" viewBox="0 0 90 90"><defs><style>.cls-1{fill:#87613e;}.cls-2{fill:#7ba60d;}.cls-2,.cls-3{fill-rule:evenodd;}.cls-3{fill:#9cc925;}</style></defs><title>green-trees</title><g id="green-trees"><rect class="cls-1" x="24.54" y="27.6" width="5.16" height="49.34" rx="1.72" ry="1.72"/><rect class="cls-1" x="60.31" y="27.6" width="5.16" height="49.34" rx="1.72" ry="1.72"/><rect class="cls-1" x="42.42" y="35.66" width="5.16" height="49.34" rx="1.72" ry="1.72"/><path class="cls-2" d="M62.59,28.07A15.58,15.58,0,1,1,46.85,43.65,15.67,15.67,0,0,1,62.59,28.07Zm-35.19,0A15.58,15.58,0,1,1,11.67,43.65,15.67,15.67,0,0,1,27.41,28.07Z"/><path class="cls-3" d="M45,49.25A22.28,22.28,0,0,0,67.36,27.13a22.36,22.36,0,0,0-44.71,0A22.28,22.28,0,0,0,45,49.25Z"/></g></svg>