<svg xmlns="http://www.w3.org/2000/svg" enable-background="new 0 0 50 50" viewBox="0 0 50 50"><path fill="#1F3241" d="M.8856 21.9107c.0259.2122.1353.3938.2916.5161.1564.1223.3588.1847.5711.1588l2.5575-.3124-.0813-.6651-1.2313.1504-.1065-.8717-1.3261.162C1.1361 21.1007.8338 21.4862.8856 21.9107zM20.911 19.5696l.0813.6651 2.5575-.3124c.2122-.0259.3937-.1353.5161-.2916.1223-.1564.1847-.3588.1588-.5711-.0519-.4245-.4381-.7259-.8626-.6741l-1.3261.162.1065.8717L20.911 19.5696zM5.9435 34.7131l-2.2522.2751c-.2039.0249-.3894-.1202-.4143-.3241l-.6047-4.9496 2.9905-.3653.6047 4.9496C6.2925 34.5027 6.1474 34.6882 5.9435 34.7131zM22.3973 32.703l2.2522-.2751c.2039-.0249.349-.2104.3241-.4143l-.6047-4.9496-2.9905.3653.6047 4.9496C22.0079 32.5829 22.1934 32.728 22.3973 32.703z"/><path fill="#F6CA1A" d="M2.4054,28.4753l0.9354,4.1439l21.0779-2.5749l-0.0889-4.2473c0.034-1.3838-0.2251-2.6101-1.0361-3.5412
			c-0.3251-0.373-0.6368-0.7576-0.9147-1.1676l-3.6264-5.3551c-0.3349-0.4935-0.9094-0.7678-1.5036-0.7183l-10.5677,1.291
			c-0.5886,0.0949-1.0802,0.4995-1.2856,1.059l-2.2306,6.0706c-0.171,0.4649-0.3817,0.9132-0.6075,1.3535
			C1.9956,25.8877,2.0392,27.1404,2.4054,28.4753z"/><path fill="#EBAE20" d="M2.1782,27.2934c0.0475,0.3889,0.1139,0.7755,0.2313,1.1847l0.9295,4.1415l21.0756-2.5746l-0.0853-4.2446
			c0.0059-0.4243-0.0132-0.8166-0.0702-1.2044L2.1782,27.2934z"/><path fill="#5D7286" d="M4.5625,23.1708l16.39-2.0022l-3.2176-4.7475c-0.0826-0.1247-0.2164-0.195-0.3693-0.186L6.8562,17.5189
			c-0.1411,0.0269-0.2635,0.1285-0.3136,0.2694L4.5625,23.1708z"/><path fill="#545554" d="M5.4259,32.3644l16.9086-2.0656l-2.8011-1.8711c-0.4255-0.2843-0.9386-0.4058-1.4461-0.3438L9.015,29.1922
			c-0.5075,0.062-0.9763,0.3035-1.3208,0.6819L5.4259,32.3644z"/><polygon fill="#1F3241" points="7.507 24.862 9.771 26.364 16.668 25.521 18.508 23.518"/><polygon fill="#FFF" points="23.017 27.288 23.284 29.475 20.83 27.555"/><path fill="#F2F2F2" d="M6.7419 24.8833c-.3528-.0802-.8355-.2099-1.1855-.3823-.183-.0901-.3739-.1632-.5736-.2049C4.4919 24.1936 3.66 24.08 3.4095 24.4166c0 0-.8297 1.8058.6254 2.227 0 0 3.8297.6863 3.6928-.1389 0 0-.0368-.4782-.2194-.9636C7.3824 25.2063 7.0906 24.9625 6.7419 24.8833zM19.2562 23.3546c.3231-.1627.7604-.4049 1.0586-.6565.1559-.1315.3236-.2484.5074-.337.4518-.2177 1.2319-.5281 1.556-.2618 0 0 1.2401 1.553-.0709 2.312 0 0-3.5519 1.588-3.6176.7542 0 0-.0794-.473-.0191-.9881C18.7122 23.8222 18.9368 23.5154 19.2562 23.3546z"/><polygon fill="#FFF" points="4.039 29.606 4.306 31.793 6.225 29.339"/><polygon fill="#77889C" points="15.279 16.49 17.121 21.637 17.775 21.557 15.933 16.41"/><polygon fill="#77889C" points="11.181 16.991 13.033 22.136 13.687 22.056 11.836 16.911"/><polygon fill="#77889C" points="7.093 17.49 8.935 22.637 9.589 22.557 7.748 17.41"/><path fill="#868F96" d="M49.1147 21.7596c-.0454.3671-.3698.6383-.74.6171l-.6435-.0305-.6682.7325-.4564-.4825.4287-.287.1972-1.5937 1.3154.261C48.9121 21.0464 49.1606 21.3885 49.1147 21.7596zM27.7166 20.2593l-.5603.3567-.4655-.8728-.6355-.1278c-.3641-.0696-.6086-.4112-.5632-.7783.0459-.3712.3663-.6429.7364-.6217l1.3394.0674-.1972 1.5937L27.7166 20.2593z"/><path fill="#1F3241" d="M24.9338 32.3403l1.7577.2175c.1553.0192.2969-.0911.3161-.2465l.4302-3.4776-2.3203-.2871-.4302 3.4776C24.668 32.1795 24.7784 32.3211 24.9338 32.3403zM44.5841 34.7713l1.7577.2175c.1553.0192.2969-.0911.3161-.2465l.4302-3.4776-2.3203-.2871-.4302 3.4776C44.3184 34.6106 44.4287 34.7521 44.5841 34.7713z"/><path fill="#49AFE3" d="M48.422,26.6633c0,0-0.5135,4.2172-1.4261,5.5011c0,0-3.4046,0.2259-5.0423-0.2412
			c-0.4849-0.1383-0.9846-0.2177-1.485-0.2796l-9.0049-1.1141c-0.4997-0.0618-1.0031-0.1065-1.5064-0.0905
			c-1.6996,0.0542-4.95-0.995-4.95-0.995c-0.5681-1.4671-0.0384-5.6823-0.0384-5.6823c0.1712-1.3839,1.5452-3.0204,1.5452-3.0204
			c0.2239-0.3533,1.2701-0.8301,1.2701-0.8301l2.2593-3.3949c0.19-0.251,0.3901-0.4656,0.5822-0.6459
			c0.5813-0.5454,1.3607-0.8296,2.1576-0.8162c1.8879,0.0319,5.1125,0.4386,5.1125,0.4386s3.1617,0.3836,5.0091,0.8076
			c0.8467,0.1943,1.5808,0.7142,2.0293,1.4581c0.1151,0.191,0.2276,0.4049,0.3277,0.6406l1.3638,3.8432
			c0,0,0.9025,0.7179,1.0336,1.1151C47.6594,23.3574,48.5932,25.2794,48.422,26.6633z"/><path fill="#5D7286" d="M45.7876,22.3112l-1.2832-3.616c-0.0755-0.1752-0.1653-0.3489-0.2665-0.5168
			c-0.3327-0.552-0.8707-0.9376-1.5147-1.0853c-1.6867-0.3871-4.5575-0.7475-4.8794-0.7873l-0.0959-0.0119
			c-0.3282-0.0406-3.2559-0.3976-4.9781-0.4266c-0.6032-0.0102-1.167,0.2016-1.5877,0.5961
			c-0.1745,0.1636-0.3345,0.3402-0.4762,0.5249l-2.1256,3.1941L45.7876,22.3112z"/><path fill="#1F3241" d="M44.5509 24.3124l-.2371.2943-2.1649.2483c-.3035.0362-.5923.152-.8407.3384l-1.8458 1.3774c-.3612.2707-.8104.3913-1.2582.3359l-3.3891-.4193c-.4438-.0549-.8541-.2818-1.1344-.6319l-1.4585-1.7862c-.1914-.2408-.4473-.424-.7328-.5331l-2.0351-.7679-.1623-.3437c0 0 4.7456 1.2753 7.569 1.4321C39.6377 24.3927 44.5509 24.3124 44.5509 24.3124zM45.6797 30.5187c-.373.1341-1.2708.3385-2.9799.1147-.3061-.042-.6142-.035-.9127.0264l-.0126.0025c-.3025.0609-.607.0724-.9096.0349l-9.5499-1.1815c-.3026-.0374-.5992-.1233-.8777-.2561l-.0076-.005c-.2785-.1328-.5756-.2146-.8828-.2485-1.7122-.1995-2.5331-.6165-2.8622-.8375-.1166-.0841-.1632-.2373-.1104-.3659.367-.8804 1.0203-1.0617 1.4761-1.0709.2299-.0043.4614.0448.6764.1287l2.1739.8383c1.1063.4277 2.2584.7177 3.4325.863l3.8329.4742c1.1781.1458 2.3661.1453 3.5434.0001l2.3086-.2838c.2329-.0285.4654-.0203.6914.0405.4398.1199 1.0293.455 1.1666 1.3978C45.8958 30.3284 45.8173 30.4661 45.6797 30.5187z"/><path fill="#FFF" d="M43.2619 26.1851c.3304-.5843 1.4612-2.462 2.6278-2.9956.1777-.0813.3732-.11.5672-.0872.3013.0354.6832.1373.787.5363 0 0-.001 1.0808-.1274 1.7921-.064.3601-.3372.6491-.6935.7319-.3804.0884-1.0299.1934-2.0908.2505-.2394.0129-.4804.0078-.7193-.0134l-.2494-.0221C43.2697 26.3692 43.2156 26.2669 43.2619 26.1851zM30.0873 24.5552c-.1781-.6472-.8171-2.7439-1.8185-3.5457-.1525-.1221-.3351-.1976-.5289-.2228-.3009-.0391-.696-.0334-.894.3284 0 0-.2624 1.0485-.3132 1.7691-.0257.3648.1689.7117.4942.8788.3474.1784.9517.4386 1.9668.7525.2291.0708.464.1247.7008.1623l.2473.0393C30.0348 24.7318 30.1122 24.6459 30.0873 24.5552z"/><rect width="4.567" height="1.268" x="34.084" y="27.212" fill="#1F3241" transform="rotate(7.054 36.362 27.841)"/><circle cx="44.151" cy="29.773" r=".646" fill="#F6CA1A"/><circle cx="28.35" cy="27.818" r=".646" fill="#F6CA1A"/><polygon fill="#EF4C4A" points="26.684 26.21 27.274 29.78 24.714 27.27 22.494 30.29 23.044 26.88 19.784 25.91 22.544 25.37 19.524 22.55 23.034 23.72 22.524 20.85 24.064 23.27 26.254 20.03 25.764 23.26 29.564 22.22 27.514 24.68 30.424 26.23"/><polygon fill="#F6CA1A" points="25.674 25.67 25.944 27.29 24.794 26.15 23.784 27.52 24.034 25.98 22.564 25.54 23.804 25.3 22.444 24.02 24.024 24.55 23.794 23.25 24.494 24.35 25.484 22.88 25.264 24.34 26.984 23.87 26.054 24.99 27.374 25.68"/></svg>